<svg xmlns="http://www.w3.org/2000/svg" xmlns:serif="http://www.serif.com/" fill-rule="evenodd" stroke-linejoin="round" stroke-miterlimit="2" clip-rule="evenodd" version="1" viewBox="0 0 2175 829">
  <path fill="#e3004f" d="M367 79h1390c118 0 213 90 213 200v268c0 110-95 200-213 200H367c-117 0-213-90-213-200V279c0-110 96-200 213-200z" serif:id="Shape 2"/>
  <path fill="#fff" d="M1574 161a263 263 0 0 0-224 208 258 258 0 0 0 251 301c156-1 280-149 251-300a260 260 0 0 0-278-209m44 42a211 211 0 0 1 187 274c-56 193-334 202-403 14a212 212 0 0 1 216-288m-113 89c-40 8-76 52-85 106-4 19 1 28 14 27 10 0 13-5 16-22 9-54 38-86 73-81 32 5 53 37 60 91 17 129 129 164 180 57 17-34 20-62 8-69s-21 1-24 21c-8 57-43 91-81 79-27-9-47-42-52-88-8-75-58-130-109-121"/>
  <g>
    <path fill="#fff" fill-rule="nonzero" d="M354 386c-23 0-41-13-53-39l23-10c3 7 7 13 12 17 5 5 11 7 18 7 11 0 20-5 27-14s11-22 12-37h-67v-24h67c-2-15-6-26-13-35s-15-13-26-13c-13 0-23 7-30 22l-23-10c12-24 30-37 53-37 21 0 38 8 50 24s18 37 18 63c0 25-6 46-18 62a59 59 0 0 1-50 24zM433 386v-25c5 0 9-1 12-3 3-3 6-8 9-17l6-37 7-88h92v167h-28V240h-38l-6 66c-2 16-4 30-7 41s-7 20-12 25-10 9-16 11c-5 2-12 3-19 3zM682 383h-91V216h91v24h-63v46h61v24h-61v48h63v25zM825 383h-33l-43-69-12 19v50h-28V216h28v80l51-80h33l-55 79 59 88zM898 383h-27V240h-39v-24h104v24h-38v143zM986 383h-28V216h57c16 0 28 5 36 15 9 10 13 22 13 37s-4 27-13 37c-8 10-20 15-36 15h-29v63zm26-88c7 0 13-2 17-7 5-5 7-12 7-20s-2-15-7-20c-4-5-10-8-17-8h-26v55h26zM1196 362a57 57 0 0 1-49 24c-21 0-37-8-49-24-12-17-18-37-18-62 0-26 6-46 18-62 12-17 28-25 49-25s37 8 49 25c12 16 18 36 18 62 0 25-6 45-18 62zm-49-1c12 0 21-6 28-17 7-12 10-27 10-44 0-18-3-33-10-45-7-11-16-17-28-17s-22 6-28 17c-7 12-11 26-11 45 0 18 4 32 11 44 6 11 16 17 28 17zM428 613h-28V470h-61v143h-28V446h117v167zM487 613h-28V446h57c16 0 28 5 36 15 9 10 13 22 13 37s-4 27-13 37c-8 10-20 15-36 15h-29v63zm26-88c7 0 13-2 18-7 4-5 6-12 6-20s-2-15-7-20c-4-5-10-8-17-8h-26v55h26zM679 613h-91V446h91v24h-64v46h62v24h-62v48h64v25zM767 616c-20 0-37-8-49-24a99 99 0 0 1-19-62c0-26 7-47 19-63s29-24 49-24c24 0 41 13 53 37l-23 10c-6-15-16-22-30-22-12 0-21 6-29 17-7 12-10 26-10 45 0 18 3 32 10 44 8 11 17 17 29 17 7 0 13-2 18-7 6-4 10-10 12-17l23 10c-11 26-29 39-53 39zM898 613h-28V470h-38v-24h104v24h-38v143zM984 613h-26V446h28v109l60-109h28v167h-28V501l-62 112zM1124 613h-32l58-88-54-79h32l45 70v-70h28v70l45-70h32l-54 79 58 88h-33l-43-69-5 9v60h-28v-60l-6-9-43 69z"/>
  </g>
</svg>
