<svg xmlns="http://www.w3.org/2000/svg" height="512" viewBox="-18 -18 572.01 572" width="512"><path d="M279.63 143.86a12.43 12.43 0 1 0-17.58 17.58l94.16 94.16H106.02a12.47 12.47 0 0 0 0 24.95h250.07l-94.17 94.16a12.42 12.42 0 0 0 8.86 21.2c3.3-.01 6.48-1.3 8.85-3.61L395 276.93a12.36 12.36 0 0 0 3.62-8.86 12.86 12.86 0 0 0-3.62-8.85zm0 0" data-original="#000000" class="active-path" data-old_color="#000000" fill="#DDD"/><path d="M268.16-.07A268.1 268.1 0 0 0 78.58 457.65c104.7 104.7 274.46 104.7 379.15 0 104.7-104.7 104.7-274.45 0-379.15A266.44 266.44 0 0 0 268.16-.07zm0 511.35c-134.08 0-243.2-109.13-243.2-243.2s109.12-243.2 243.2-243.2 243.2 109.12 243.2 243.2-109.13 243.2-243.2 243.2zm0 0" data-original="#000000" class="active-path" data-old_color="#000000" fill="#DDD"/></svg>