<svg xmlns="http://www.w3.org/2000/svg" version="1" width="512" height="512"><path d="M500 457H12a12 12 0 1 0 0 24h488a12 12 0 0 0 0-24zM468 88h-85c-6 0-12 6-12 12v83h-60V43c0-6-6-12-13-12h-84c-7 0-13 6-13 12v229h-60V169c0-6-6-12-12-12H44c-7 0-12 6-12 12v232c0 7 5 12 12 12h424c7 0 12-5 12-12V100c0-6-5-12-12-12zM116 389H56V181h60v208zm85 0h-60v-93h60v93zm85-194v194h-60V55h60v140zm85 194h-60V207h60v182zm85 0h-60V112h60v277z" data-original="#000000" class="active-path" data-old_color="#000000" fill="#969696"/></svg>