<svg version="1" xmlns="http://www.w3.org/2000/svg" width="400" height="66" viewBox="0 0 0 0 400 66"><path d="M14 9c-5 3-7 6-6 17v7h8c9 0 8 1 10-8 2-7 2-7 4-7s2-1 5 10c2 8 4 11 4 9a554 554 0 0 1 4-29c0-2-24-1-29 1m35-1l7 42 2-11c1-7 1-6 11-6h10c2 0 1-17-1-20-3-5-6-6-18-6L49 8m40 11v4h8c9 0 10 1 10 4s-2 4-10 4h-8v8h8c8 0 9 1 10 4s-2 4-10 4h-8v8h9c15 0 18-3 18-20s-3-20-18-20h-9v4m36 16l1 20h8v-7c0-7 1-9 5-9s5 2 5 9v6l4 1h4V35l1-20h-10v7c0 8 0 9-4 9s-5-2-5-10v-6h-9v20m45-19c-7 2-11 10-7 17l2 2-2 2c-3 5-1 13 5 16 3 2 3 2 12 2h8l1-4v-4h-8c-8 0-10-1-10-3-1-4 1-5 10-5h7l1-4v-4h-8c-8 0-10-1-10-3-1-4 1-5 10-5h7l1-4v-4h-8l-11 1m28 19v20h8l1-7c0-8 0-8 5-9 13-2 17-14 8-21-4-3-6-3-15-3h-7v20m45-19c-8 3-9 4-9 23v16h4c6 0 5 1 5-16s-1-15 10-16h8v-8h-8l-10 1m31 0c-3 1-6 3-7 6-2 4-2 22 0 26 5 9 19 9 24 0 2-2 2-2 1-14V23l-1-2c-4-5-11-7-17-5m23 3l1 4h3c5 1 5 0 5 17l1 15h3c6 0 6 1 6-16 0-16-1-15 5-16h3l1-4v-4h-28v4m42-4c-9 3-12 12-8 18v4c-3 4-2 11 2 14 3 3 7 4 15 4h8v-8h-8c-8 0-10-1-10-4s1-4 10-4h8v-8h-8c-8 0-10-1-10-4s1-4 10-4h8v-8h-17m26 0c-1 3 0 15 2 18 2 2 2 2 1 3-2 2-3 7-3 12 0 7 0 7 5 7h4v-7c1-8 1-9 5-9s4 1 4 9l1 7h8v-8l-1-10-2-2 2-2 1-10v-8h-9v7c0 7-1 9-4 9-4 0-5-2-5-9v-7h-9M46 19a1453 1453 0 0 1-7 31h-2l-3-11c-4-13-4-12-6-7l-1 5H8v8c0 17 2 18 28 18h18l-1-2a1632 1632 0 0 1-7-42m169 6c2 2 0 6-4 6s-5-5-3-7c2-1 5-1 7 1m67-1c2 2 2 19 0 22h-6l-1-11c0-11 0-12 4-12l3 1M63 37l-4 25c0 2 11 1 15-1 5-3 6-7 6-16v-8H63" fill-rule="evenodd"/></svg>